<?xml version="1.0" encoding="UTF-8" standalone="no" ?>
<!DOCTYPE svg PUBLIC "-//W3C//DTD SVG 1.1//EN" "http://www.w3.org/Graphics/SVG/1.1/DTD/svg11.dtd">
<svg xmlns="http://www.w3.org/2000/svg" xmlns:xlink="http://www.w3.org/1999/xlink" version="1.1" width="300" height="400" viewBox="0 0 300 400" xml:space="preserve">
<desc>Created with Fabric.js 5.3.0</desc>
<defs>
</defs>
<g transform="matrix(1 0 0 1.6651807291 229.1023880893 202.3322787606)" id="6vCsnLtuSspjEtlTIGoVg"  >
<path style="stroke: rgb(247,47,58); stroke-width: 0; stroke-dasharray: none; stroke-linecap: butt; stroke-dashoffset: 0; stroke-linejoin: miter; stroke-miterlimit: 4; fill: rgb(226,0,43); fill-rule: nonzero; opacity: 1;" vector-effect="non-scaling-stroke"  transform=" translate(-0.000005, 0)" d="M -50.77139 -37.83557 C -50.77139 -41.26636 -48.501949999999994 -44.556639999999994 -44.462329999999994 -46.98258 C -40.422709999999995 -49.408519999999996 -34.943799999999996 -50.77139 -29.230909999999994 -50.77139 L 29.230920000000005 -50.77139 L 29.230920000000005 -50.77139 C 34.943810000000006 -50.77139 40.42271 -49.40851 44.462340000000005 -46.98258 C 48.501960000000004 -44.55664 50.77140000000001 -41.266369999999995 50.77140000000001 -37.83557 L 50.77140000000001 37.83557 L 50.77140000000001 37.83557 C 50.77140000000001 44.97983 41.12740000000001 50.77139 29.23092000000001 50.77139 L -29.23090999999999 50.77139 L -29.23090999999999 50.77139 C -41.12738999999999 50.77139 -50.77138999999999 44.97983 -50.77138999999999 37.83557 z" stroke-linecap="round" />
</g>
<g transform="matrix(1.5989322225 0 0 0.9995241377 128.576513652 117.7887406027)" id="peV-OzoksxlnmjIIHkG2h"  >
<path style="stroke: rgb(254,34,159); stroke-width: 0; stroke-dasharray: none; stroke-linecap: butt; stroke-dashoffset: 0; stroke-linejoin: miter; stroke-miterlimit: 4; fill: rgb(247,47,58); fill-rule: nonzero; opacity: 1;" vector-effect="non-scaling-stroke"  transform=" translate(0, 0)" d="M 0 -59.18654 C 32.67097 -59.18654 59.18654 -32.67097 59.18654 0 C 59.18654 32.67097 32.67097 59.18654 0 59.18654 C -32.67097 59.18654 -59.18654 32.67097 -59.18654 0 C -59.18654 -32.67097 -32.67097 -59.18654 0 -59.18654 z" stroke-linecap="round" />
</g>
<g transform="matrix(3.0951809014 0 0 2.5959062423 128.5765123246 195.1669705103)" id="sLZ4Mt4oEMmqRr5IDaeAq"  >
<path style="stroke: rgb(2,234,190); stroke-width: 0; stroke-dasharray: none; stroke-linecap: butt; stroke-dashoffset: 0; stroke-linejoin: miter; stroke-miterlimit: 4; fill: rgb(247,47,58); fill-rule: nonzero; opacity: 1;" vector-effect="non-scaling-stroke"  transform=" translate(0.000005, 0.000005)" d="M -30.57504 -30.57504 L 30.575029999999998 -30.57504 L 30.575029999999998 30.575029999999998 L -30.57504 30.575029999999998 z" stroke-linecap="round" />
</g>
<g transform="matrix(1 0 0 1 78.8220387814 296.4888460183)" id="INIKwFweAlUGuXuDzsqTX"  >
<path style="stroke: rgb(124,191,151); stroke-width: 0; stroke-dasharray: none; stroke-linecap: butt; stroke-dashoffset: 0; stroke-linejoin: miter; stroke-miterlimit: 4; fill: rgb(247,47,58); fill-rule: nonzero; opacity: 1;" vector-effect="non-scaling-stroke"  transform=" translate(-44.88078, -44.88078)" d="M 0 19.0413 C 0 8.525079999999999 8.52508 0 19.0413 0 L 70.72026 0 L 70.72026 0 C 81.23648 0 89.76156 8.52508 89.76156 19.0413 L 89.76156 70.72026 L 89.76156 70.72026 C 89.76156 81.23648 81.23648 89.76156 70.72026 89.76156 L 19.0413 89.76156 L 19.0413 89.76156 C 8.525079999999999 89.76156 0 81.23648 0 70.72026 z" stroke-linecap="round" />
</g>
<g transform="matrix(1 0 0 1 178.3309993307 296.488837451)" id="Sc4pcxJMCJZpTcWudRQ7W"  >
<path style="stroke: rgb(247,47,58); stroke-width: 0; stroke-dasharray: none; stroke-linecap: butt; stroke-dashoffset: 0; stroke-linejoin: miter; stroke-miterlimit: 4; fill: rgb(247,47,58); fill-rule: nonzero; opacity: 1;" vector-effect="non-scaling-stroke"  transform=" translate(-44.88078, -44.88078)" d="M 0 19.0413 C 0 8.525079999999999 8.52508 0 19.0413 0 L 70.72026 0 L 70.72026 0 C 81.23648 0 89.76156 8.52508 89.76156 19.0413 L 89.76156 70.72026 L 89.76156 70.72026 C 89.76156 81.23648 81.23648 89.76156 70.72026 89.76156 L 19.0413 89.76156 L 19.0413 89.76156 C 8.525079999999999 89.76156 0 81.23648 0 70.72026 z" stroke-linecap="round" />
</g>
<g transform="matrix(1 0 0 0.6131540049 99.2286112414 153.8303327049)" id="rr9YGcXQ6UyPCxhrPYWXJ"  >
<path style="stroke: rgb(247,47,58); stroke-width: 0; stroke-dasharray: none; stroke-linecap: butt; stroke-dashoffset: 0; stroke-linejoin: miter; stroke-miterlimit: 4; fill: rgb(136,207,255); fill-rule: nonzero; opacity: 1;" vector-effect="non-scaling-stroke"  transform=" translate(0, 0)" d="M 0 -79.10239 C 43.66452 -79.10239 79.10239 -43.66452 79.10239 0 C 79.10239 43.66452 43.66452 79.10239 0 79.10239 C -43.66452 79.10239 -79.10239 43.66452 -79.10239 0 C -79.10239 -43.66452 -43.66452 -79.10239 0 -79.10239 z" stroke-linecap="round" />
</g>
</svg>